<?xml version="1.0" standalone="no"?>
<!DOCTYPE svg PUBLIC "-//W3C//DTD SVG 20010904//EN"
 "http://www.w3.org/TR/2001/REC-SVG-20010904/DTD/svg10.dtd">
<svg version="1.0" xmlns="http://www.w3.org/2000/svg"
 width="395.000000pt" height="273.000000pt" viewBox="0 0 395.000000 273.000000"
 preserveAspectRatio="xMidYMid meet">
<metadata>
Created by potrace 1.16, written by Peter Selinger 2001-2019
</metadata>
<g transform="translate(0.000000,273.000000) scale(0.100000,-0.100000)"
fill="#000000" stroke="none">
<path d="M480 2235 l0 -355 50 0 50 0 2 163 3 162 198 3 197 2 0 -165 0 -165
55 0 55 0 0 355 0 355 -55 0 -55 0 0 -145 0 -145 -197 2 -198 3 -3 143 -3 142
-49 0 -50 0 0 -355z"/>
<path d="M1330 2354 c-45 -20 -96 -69 -123 -119 -31 -57 -30 -173 0 -231 27
-50 93 -109 141 -125 53 -17 134 -7 180 24 l40 26 6 -24 c5 -21 12 -25 46 -25
l40 0 0 240 0 240 -40 0 c-34 0 -41 -4 -46 -25 -6 -23 -8 -24 -23 -12 -53 47
-152 61 -221 31z m160 -93 c48 -35 70 -79 70 -141 0 -92 -61 -163 -140 -163
-52 0 -88 25 -117 83 -28 54 -29 109 -4 158 44 87 123 113 191 63z"/>
<path d="M1906 2345 c-56 -30 -52 -30 -59 -5 -4 16 -14 20 -46 20 l-41 0 0
-340 0 -340 50 0 50 0 0 127 0 126 23 -21 c31 -29 70 -42 128 -42 90 0 166 49
205 135 47 99 23 236 -52 307 -67 63 -176 77 -258 33z m174 -91 c43 -37 60
-75 60 -137 0 -92 -63 -161 -145 -159 -80 1 -123 45 -132 136 -8 73 17 140 61
167 47 29 117 26 156 -7z"/>
<path d="M2475 2346 c-47 -24 -64 -23 -65 7 0 4 -18 7 -40 7 l-40 0 0 -340 0
-340 50 0 50 0 0 120 0 119 46 -24 c121 -65 274 0 319 135 38 115 0 239 -93
304 -35 25 -55 31 -110 34 -56 3 -75 -1 -117 -22z m179 -96 c110 -97 49 -295
-90 -292 -90 1 -137 63 -132 174 5 103 47 148 140 148 39 0 54 -6 82 -30z"/>
<path d="M2926 2203 c42 -87 88 -184 102 -215 l25 -58 -52 -112 c-28 -62 -51
-117 -51 -121 0 -4 23 -7 52 -5 l51 3 134 290 c74 160 143 309 153 333 l19 42
-53 0 -53 0 -73 -155 -73 -154 -72 152 -73 152 -56 3 -56 3 76 -158z"/>
<path d="M2330 1195 l0 -365 50 0 50 0 0 365 0 365 -50 0 -50 0 0 -365z"/>
<path d="M525 1538 c-109 -40 -161 -152 -117 -251 27 -61 85 -101 191 -133
156 -47 194 -83 168 -162 -8 -26 -22 -42 -47 -54 -67 -34 -182 -18 -236 33
l-22 20 -41 -21 c-34 -17 -40 -24 -32 -38 16 -30 55 -60 106 -84 67 -31 201
-33 259 -4 89 45 135 129 121 223 -6 40 -15 56 -54 94 -42 40 -63 51 -163 83
-126 40 -158 63 -158 113 0 47 9 62 51 83 62 32 149 20 201 -26 15 -15 20 -14
57 6 37 22 39 24 25 45 -8 12 -38 35 -67 50 -42 24 -66 29 -132 32 -44 1 -93
-2 -110 -9z"/>
<path d="M1333 1296 c-41 -23 -42 -24 -48 -5 -5 14 -16 19 -46 19 l-39 0 0
-240 0 -240 45 0 45 0 0 150 c0 108 4 160 14 185 29 68 134 89 187 36 l29 -29
0 -171 0 -171 50 0 50 0 0 153 c-1 166 -10 224 -42 270 -47 66 -167 87 -245
43z"/>
<path d="M1849 1297 c-58 -31 -104 -93 -119 -160 -11 -45 -10 -62 4 -110 42
-145 191 -211 325 -145 l51 25 0 -26 c0 -44 -41 -113 -80 -133 -52 -27 -144
-24 -204 6 l-47 24 3 -52 3 -51 50 -18 c38 -13 71 -16 133 -13 111 5 163 36
207 120 l30 59 4 244 3 243 -41 0 c-30 0 -43 -5 -51 -20 -10 -19 -11 -19 -57
5 -63 34 -152 35 -214 2z m190 -80 c62 -31 85 -133 48 -204 -38 -72 -148 -88
-212 -32 -70 61 -70 157 0 218 30 26 44 31 88 31 29 0 63 -6 76 -13z"/>
<path d="M2670 1304 c-113 -49 -176 -191 -136 -310 55 -167 260 -228 408 -123
l30 22 -30 30 c-29 29 -32 29 -55 14 -75 -49 -161 -40 -219 22 -65 69 -62 71
138 71 l177 0 -6 59 c-9 102 -61 186 -134 217 -42 18 -129 17 -173 -2z m158
-99 c30 -25 56 -78 45 -89 -4 -3 -60 -6 -125 -6 -114 0 -118 1 -118 21 0 12
17 39 39 60 34 34 45 39 84 39 34 0 53 -6 75 -25z"/>
<path d="M3150 1298 c-51 -26 -90 -78 -90 -120 0 -67 49 -110 165 -144 76 -22
95 -34 95 -61 0 -32 -45 -63 -92 -63 -30 0 -46 7 -68 29 l-29 28 -41 -18 c-45
-20 -45 -32 2 -76 115 -108 328 -40 328 105 0 62 -42 100 -141 131 -89 28
-119 45 -119 70 0 52 102 72 138 26 16 -20 25 -23 56 -18 46 7 51 15 32 52
-37 71 -156 101 -236 59z"/>
<path d="M990 1070 l0 -240 50 0 50 0 0 240 0 240 -50 0 -50 0 0 -240z"/>
</g>
</svg>
